<svg width="70" height="70" viewBox="0 0 70 70" fill="none" xmlns="http://www.w3.org/2000/svg">
<path d="M35.0078 17.0491C25.0759 17.0491 17.0647 25.0602 17.0647 34.9922C17.0647 44.9241 25.0759 52.9353 35.0078 52.9353C44.9398 52.9353 52.9509 44.9241 52.9509 34.9922C52.9509 25.0602 44.9398 17.0491 35.0078 17.0491ZM35.0078 46.6575C28.5895 46.6575 23.3424 41.4261 23.3424 34.9922C23.3424 28.5583 28.5739 23.3268 35.0078 23.3268C41.4417 23.3268 46.6732 28.5583 46.6732 34.9922C46.6732 41.4261 41.4261 46.6575 35.0078 46.6575ZM57.8701 16.3151C57.8701 18.6419 55.9961 20.5003 53.6849 20.5003C51.3581 20.5003 49.4997 18.6263 49.4997 16.3151C49.4997 14.0039 51.3737 12.1299 53.6849 12.1299C55.9961 12.1299 57.8701 14.0039 57.8701 16.3151ZM69.754 20.5627C69.4886 14.9565 68.208 9.99051 64.101 5.89905C60.0095 1.80758 55.0435 0.527049 49.4373 0.245956C43.6592 -0.0819854 26.3408 -0.0819854 20.5627 0.245956C14.9721 0.511433 10.0061 1.79197 5.89905 5.88343C1.79197 9.9749 0.52705 14.9409 0.245956 20.5471C-0.0819855 26.3251 -0.0819855 43.6436 0.245956 49.4216C0.511433 55.0278 1.79197 59.9938 5.89905 64.0853C10.0061 68.1768 14.9565 69.4573 20.5627 69.7384C26.3408 70.0663 43.6592 70.0663 49.4373 69.7384C55.0435 69.4729 60.0095 68.1924 64.101 64.0853C68.1924 59.9938 69.473 55.0278 69.754 49.4216C70.082 43.6436 70.082 26.3408 69.754 20.5627ZM62.2895 55.6213C61.0714 58.6821 58.7133 61.0401 55.6369 62.2738C51.0301 64.1009 40.0987 63.6793 35.0078 63.6793C29.9169 63.6793 18.9699 64.0853 14.3787 62.2738C11.3179 61.0557 8.95984 58.6977 7.72616 55.6213C5.89905 51.0145 6.32069 40.0831 6.32069 34.9922C6.32069 29.9013 5.91467 18.9543 7.72616 14.3631C8.94423 11.3023 11.3023 8.94422 14.3787 7.71054C18.9855 5.88343 29.9169 6.30507 35.0078 6.30507C40.0987 6.30507 51.0457 5.89905 55.6369 7.71054C58.6977 8.9286 61.0558 11.2867 62.2895 14.3631C64.1166 18.9699 63.6949 29.9013 63.6949 34.9922C63.6949 40.0831 64.1166 51.0301 62.2895 55.6213Z" fill="white"/>
</svg>
