<svg width="79" height="65" viewBox="0 0 79 65" fill="none" xmlns="http://www.w3.org/2000/svg">
<path d="M70.8796 15.9905C70.9298 16.6922 70.9298 17.3941 70.9298 18.0958C70.9298 39.5 54.6386 64.1626 24.863 64.1626C15.6897 64.1626 7.1682 61.5057 0 56.8942C1.30335 57.0445 2.5564 57.0947 3.9099 57.0947C11.479 57.0947 18.4467 54.5383 24.0108 50.1772C16.8928 50.0268 10.9277 45.365 8.87241 38.9487C9.87504 39.099 10.8775 39.1993 11.9303 39.1993C13.3839 39.1993 14.8377 38.9987 16.1911 38.648C8.77227 37.144 3.208 30.6276 3.208 22.7576V22.5572C5.36338 23.7603 7.86994 24.5122 10.5265 24.6123C6.16542 21.7049 3.30829 16.7424 3.30829 11.1281C3.30829 8.12052 4.11018 5.36353 5.51382 2.95742C13.4841 12.7823 25.4645 19.1985 38.8984 19.9004C38.6478 18.6973 38.4974 17.4443 38.4974 16.191C38.4974 7.26834 45.7157 0 54.6884 0C59.3502 0 63.5608 1.95495 66.5184 5.11295C70.1776 4.41121 73.6865 3.05771 76.7945 1.20306C75.5913 4.96267 73.0349 8.12067 69.6764 10.1256C72.9347 9.7749 76.0927 8.87241 79 7.61936C76.7948 10.8274 74.0376 13.6845 70.8796 15.9905Z" fill="white"/>
</svg>
